<svg width="309" height="221" viewBox="0 0 309 221" fill="none" xmlns="http://www.w3.org/2000/svg">
<g filter="url(#filter0_d_697_2381)">
<path d="M247.578 16C266.908 16 282.578 31.67 282.578 51V159.403C282.578 178.733 266.908 194.403 247.578 194.403H50.9994C31.6694 194.403 15.9994 178.733 15.9994 159.403V51C15.9994 31.67 31.6694 16 50.9994 16L247.578 16Z" fill="#FF73B9" shape-rendering="crispEdges"/>
<path d="M282.078 51V159.402C282.078 178.456 266.632 193.902 247.578 193.902H50.999C31.9454 193.902 16.499 178.456 16.499 159.402V51C16.499 31.9463 31.9454 16.5002 50.999 16.5L247.578 16.5C266.632 16.5 282.078 31.9462 282.078 51Z" stroke="#292929" shape-rendering="crispEdges"/>
<g filter="url(#filter1_d_697_2381)">
<path d="M247.578 16C266.908 16 282.578 31.67 282.578 51V159.403C282.578 178.733 266.908 194.403 247.578 194.403H50.9994C31.6694 194.403 15.9994 178.733 15.9994 159.403V51C15.9994 31.67 31.6694 16 50.9994 16L247.578 16Z" fill="url(#paint0_linear_697_2381)"/>
<path d="M282.078 51V159.402C282.078 178.456 266.632 193.902 247.578 193.902H50.999C31.9454 193.902 16.499 178.456 16.499 159.402V51C16.499 31.9463 31.9454 16.5002 50.999 16.5L247.578 16.5C266.632 16.5 282.078 31.9462 282.078 51Z" stroke="#292929"/>
</g>
<path d="M130.196 125.023C131.528 126.749 131.564 128.679 130.351 130.071C129.029 131.587 127.118 131.845 125.2 130.668C120.479 127.771 115.782 124.834 111.073 121.917C105.826 118.667 100.579 115.416 95.3266 112.174C92.2029 110.247 92.1988 106.949 95.3749 105.129C105.399 99.3862 115.436 93.6656 125.475 87.9492C127.187 86.9744 129.253 87.3395 130.407 88.7525C131.484 90.0695 131.482 92.116 130.417 93.4801C130.067 93.9286 129.615 94.2382 129.133 94.5158C121.695 98.8025 114.256 103.087 106.82 107.376C106.075 107.807 105.346 108.266 104.658 108.682C104.679 109.254 105.075 109.343 105.362 109.521C113.302 114.434 121.245 119.342 129.184 124.257C129.518 124.464 129.819 124.724 130.196 125.023Z" fill="white"/>
<path d="M192.516 108.772C184.972 104.108 177.512 99.4724 170.025 94.8787C168.437 93.9037 167.221 92.7477 167.425 90.734C167.699 88.0245 170.71 86.3736 173.454 88.109C177.233 90.499 181.057 92.8172 184.86 95.1689C190.985 98.9565 197.106 102.75 203.233 106.534C206.472 108.534 206.468 111.826 203.176 113.712C193.187 119.434 183.187 125.138 173.187 130.841C171.276 131.931 168.936 131.339 167.903 129.536C166.859 127.715 167.472 125.44 169.406 124.318C177.141 119.83 184.894 115.373 192.638 110.903C193.112 110.63 193.575 110.338 194.109 110.016C193.714 109.363 193.076 109.182 192.516 108.772Z" fill="white"/>
<path d="M146.078 128.496C144.873 131.729 143.692 134.874 142.512 138.018C141.612 140.415 139.477 141.479 137.225 140.653C135.123 139.88 134.204 137.608 135.09 135.233C139.096 124.496 143.118 113.765 147.133 103.031C150.096 95.109 153.051 87.1846 156.024 79.2667C156.696 77.4768 158.011 76.5782 159.806 76.595C161.552 76.6112 162.908 77.521 163.467 79.0892C163.84 80.1354 163.77 81.185 163.383 82.2179C158.963 94.0235 154.542 105.829 150.123 117.635C148.779 121.224 147.443 124.816 146.078 128.496Z" fill="white"/>
</g>
<defs>
<filter id="filter0_d_697_2381" x="0" y="0" width="308.578" height="220.402" filterUnits="userSpaceOnUse" color-interpolation-filters="sRGB">
<feFlood flood-opacity="0" result="BackgroundImageFix"/>
<feColorMatrix in="SourceAlpha" type="matrix" values="0 0 0 0 0 0 0 0 0 0 0 0 0 0 0 0 0 0 127 0" result="hardAlpha"/>
<feMorphology radius="1" operator="dilate" in="SourceAlpha" result="effect1_dropShadow_697_2381"/>
<feOffset dx="5" dy="5"/>
<feGaussianBlur stdDeviation="10"/>
<feComposite in2="hardAlpha" operator="out"/>
<feColorMatrix type="matrix" values="0 0 0 0 0 0 0 0 0 0 0 0 0 0 0 0 0 0 0.5 0"/>
<feBlend mode="normal" in2="BackgroundImageFix" result="effect1_dropShadow_697_2381"/>
<feBlend mode="normal" in="SourceGraphic" in2="effect1_dropShadow_697_2381" result="shape"/>
</filter>
<filter id="filter1_d_697_2381" x="0" y="0" width="308.578" height="220.402" filterUnits="userSpaceOnUse" color-interpolation-filters="sRGB">
<feFlood flood-opacity="0" result="BackgroundImageFix"/>
<feColorMatrix in="SourceAlpha" type="matrix" values="0 0 0 0 0 0 0 0 0 0 0 0 0 0 0 0 0 0 127 0" result="hardAlpha"/>
<feMorphology radius="1" operator="dilate" in="SourceAlpha" result="effect1_dropShadow_697_2381"/>
<feOffset dx="5" dy="5"/>
<feGaussianBlur stdDeviation="10"/>
<feComposite in2="hardAlpha" operator="out"/>
<feColorMatrix type="matrix" values="0 0 0 0 0 0 0 0 0 0 0 0 0 0 0 0 0 0 0.5 0"/>
<feBlend mode="normal" in2="BackgroundImageFix" result="effect1_dropShadow_697_2381"/>
<feBlend mode="normal" in="SourceGraphic" in2="effect1_dropShadow_697_2381" result="shape"/>
</filter>
<linearGradient id="paint0_linear_697_2381" x1="282.578" y1="105.201" x2="15.9994" y2="105.201" gradientUnits="userSpaceOnUse">
<stop stop-color="#FFD500"/>
<stop offset="1" stop-color="#FE7664"/>
</linearGradient>
</defs>
</svg>
