<svg width="309" height="221" viewBox="0 0 309 221" fill="none" xmlns="http://www.w3.org/2000/svg">
<g filter="url(#filter0_d_697_2387)">
<path d="M247.977 16.0771C267.307 16.0771 282.977 31.7472 282.977 51.0771V159.48C282.977 178.81 267.307 194.48 247.977 194.48H51.3978C32.0679 194.48 16.3979 178.81 16.3979 159.48V51.0771C16.3979 31.7472 32.0679 16.0771 51.3979 16.0771L247.977 16.0771Z" fill="#FF73B9" shape-rendering="crispEdges"/>
<path d="M282.477 51.0771V159.479C282.477 178.533 267.03 193.979 247.977 193.979H51.3975C32.3438 193.979 16.8975 178.533 16.8975 159.479V51.0771C16.8975 32.0235 32.3438 16.5774 51.3975 16.5771L247.977 16.5771C267.03 16.5771 282.477 32.0233 282.477 51.0771Z" stroke="#292929" shape-rendering="crispEdges"/>
<g filter="url(#filter1_d_697_2387)">
<path d="M247.977 16.0771C267.307 16.0771 282.977 31.7472 282.977 51.0771V159.48C282.977 178.81 267.307 194.48 247.977 194.48H51.3978C32.0679 194.48 16.3979 178.81 16.3979 159.48V51.0771C16.3979 31.7472 32.0679 16.0771 51.3979 16.0771L247.977 16.0771Z" fill="url(#paint0_linear_697_2387)"/>
<path d="M282.477 51.0771V159.479C282.477 178.533 267.03 193.979 247.977 193.979H51.3975C32.3438 193.979 16.8975 178.533 16.8975 159.479V51.0771C16.8975 32.0235 32.3438 16.5774 51.3975 16.5771L247.977 16.5771C266.733 16.5771 281.992 31.5443 282.465 50.1865L282.477 51.0771Z" stroke="#292929"/>
</g>
<path d="M124.933 49.7808C123.697 50.3326 123.035 50.9506 122.439 52.0761C121.997 52.8928 121.953 53.29 121.953 56.9316C121.953 61.5002 122.086 62.074 123.454 63.4203C125.065 65.0094 124.69 64.9873 141.154 64.9873C156.736 64.9873 156.957 64.9652 158.458 63.9058C158.833 63.641 159.407 62.9568 159.738 62.383C160.333 61.3898 160.356 61.2133 160.422 57.8144C160.532 53.2017 160.333 52.2527 158.921 50.8402C158.281 50.2002 157.531 49.6926 157.023 49.5601C156.449 49.4056 151.174 49.3174 141.044 49.3174C126.301 49.3174 125.904 49.3394 124.933 49.7808ZM156.604 53.1797C157.133 53.6873 157.155 53.7976 157.155 56.9095C157.155 60.3305 157.001 61.0367 156.118 61.434C155.743 61.6105 151.241 61.6767 141.044 61.6767H126.5L125.882 61.1471C125.264 60.6174 125.264 60.5953 125.197 57.5937C125.109 54.239 125.175 53.7094 125.815 53.0693C126.257 52.6279 126.61 52.6279 141.154 52.6279H156.074L156.604 53.1797Z" fill="white"/>
<path d="M103.391 55.9605C101.912 56.5343 100.478 57.7923 99.661 59.271L98.9989 60.4628L98.9327 108.51C98.8886 156.226 98.8886 156.557 99.33 157.749C99.9259 159.36 101.007 160.552 102.685 161.457L104.075 162.207L133.385 162.273L162.694 162.317L163.224 161.788C163.93 161.081 163.93 160.243 163.224 159.559L162.694 159.007H133.914H105.134L104.163 158.499C103.568 158.168 103.016 157.661 102.707 157.109L102.199 156.248L102.265 108.686L102.309 61.1249L102.817 60.3966C103.104 59.9994 103.722 59.4917 104.185 59.249C104.98 58.8517 105.51 58.8076 110.652 58.8076C115.993 58.8076 116.302 58.7855 116.854 58.3441C117.582 57.7702 117.648 56.6005 116.986 55.9384C116.567 55.5191 116.258 55.497 110.542 55.5191C105.09 55.5191 104.406 55.5632 103.391 55.9605Z" fill="white"/>
<path d="M165.319 55.9826C164.723 56.6226 164.745 57.7261 165.341 58.2779C165.76 58.6531 166.312 58.6972 171.808 58.8076L177.833 58.9179L178.627 59.5359C180.349 60.8381 180.216 58.3883 180.283 88.3156L180.327 115.065L180.923 115.506C181.232 115.771 181.629 115.97 181.783 115.97C182.401 115.97 183.174 115.44 183.417 114.888C183.571 114.469 183.637 106.546 183.593 87.7197L183.527 61.125L182.887 59.7345C182.092 58.0351 180.569 56.5785 178.87 55.9605C177.767 55.5412 177.171 55.497 171.719 55.497C165.893 55.497 165.76 55.497 165.319 55.9826Z" fill="white"/>
<path d="M113.235 73.374C112.573 74.0361 112.639 75.2059 113.368 75.7797C113.941 76.2432 114.118 76.2432 127.846 76.2432H141.728L142.258 75.6914C142.964 75.0072 142.986 74.0582 142.302 73.4182L141.794 72.9326H127.735C113.964 72.9326 113.677 72.9326 113.235 73.374Z" fill="white"/>
<path d="M113.168 91.2068C112.638 91.8027 112.682 93.0828 113.256 93.5904C113.72 93.9877 114.492 94.0098 141.175 94.0098H168.609L169.094 93.5242C169.69 92.9283 169.734 91.8689 169.183 91.251C168.785 90.8096 168.565 90.8096 141.153 90.8096C114.669 90.8096 113.499 90.8316 113.168 91.2068Z" fill="white"/>
<path d="M113.367 104.295C112.638 104.868 112.594 105.95 113.234 106.656L113.698 107.142H141.043C156.073 107.142 168.543 107.075 168.741 107.009C168.918 106.921 169.249 106.568 169.425 106.215C169.712 105.663 169.712 105.442 169.492 104.912C169.359 104.537 169.05 104.162 168.829 104.052C168.587 103.919 158.214 103.831 141.197 103.831C113.963 103.831 113.963 103.831 113.367 104.295Z" fill="white"/>
<path d="M113.233 117.515C112.637 118.111 112.659 119.302 113.255 119.854C113.718 120.251 114.491 120.273 141.174 120.273H168.607L169.093 119.788C169.689 119.192 169.733 118.133 169.181 117.515C168.784 117.073 168.563 117.073 141.218 117.073C113.961 117.073 113.674 117.073 113.233 117.515Z" fill="white"/>
<path d="M173.243 120.053C166.711 121.289 160.884 125.681 157.993 131.53C155.543 136.474 155.08 142.344 156.757 147.531C159.163 155.013 165.695 160.641 173.574 162.009C182.8 163.62 192.334 158.544 196.351 149.87C197.786 146.714 198.095 145.213 198.095 141.02C198.095 137.776 198.028 137.047 197.587 135.525C195.402 127.976 189.752 122.415 182.204 120.384C179.887 119.766 175.605 119.612 173.243 120.053ZM180.681 123.452C186.883 124.732 191.915 129.234 194.056 135.392C194.74 137.423 194.784 137.599 194.784 141.02C194.784 144.441 194.762 144.617 194.078 146.56C190.061 158.036 176.929 162.561 166.975 155.895C157.905 149.826 156.382 136.805 163.819 128.859C168.233 124.158 174.413 122.172 180.681 123.452Z" fill="white"/>
<path d="M185.472 133.272C185.009 133.802 182.603 136.782 180.109 139.871C177.615 142.983 175.54 145.521 175.474 145.521C175.408 145.521 174.481 144.263 173.378 142.718C172.296 141.196 171.126 139.783 170.817 139.607C169.979 139.143 169.14 139.452 168.699 140.335C168.368 141.063 168.368 141.129 168.919 142.056C169.25 142.564 170.575 144.484 171.877 146.316C174.393 149.803 174.945 150.266 175.982 149.803C176.269 149.671 179.27 146.161 182.625 142.012C187.282 136.252 188.716 134.332 188.716 133.868C188.716 133.007 187.966 132.301 187.061 132.301C186.465 132.301 186.156 132.478 185.472 133.272Z" fill="white"/>
<path d="M113.388 130.558C112.637 131.132 112.571 132.302 113.233 132.964C113.674 133.405 113.961 133.405 132.655 133.405H151.658L152.231 132.831C152.673 132.39 152.761 132.147 152.651 131.573C152.364 130.117 153.754 130.205 132.898 130.139C113.983 130.095 113.961 130.095 113.388 130.558Z" fill="white"/>
</g>
<defs>
<filter id="filter0_d_697_2387" x="0.398438" y="0.0771484" width="308.578" height="220.402" filterUnits="userSpaceOnUse" color-interpolation-filters="sRGB">
<feFlood flood-opacity="0" result="BackgroundImageFix"/>
<feColorMatrix in="SourceAlpha" type="matrix" values="0 0 0 0 0 0 0 0 0 0 0 0 0 0 0 0 0 0 127 0" result="hardAlpha"/>
<feMorphology radius="1" operator="dilate" in="SourceAlpha" result="effect1_dropShadow_697_2387"/>
<feOffset dx="5" dy="5"/>
<feGaussianBlur stdDeviation="10"/>
<feComposite in2="hardAlpha" operator="out"/>
<feColorMatrix type="matrix" values="0 0 0 0 0 0 0 0 0 0 0 0 0 0 0 0 0 0 0.5 0"/>
<feBlend mode="normal" in2="BackgroundImageFix" result="effect1_dropShadow_697_2387"/>
<feBlend mode="normal" in="SourceGraphic" in2="effect1_dropShadow_697_2387" result="shape"/>
</filter>
<filter id="filter1_d_697_2387" x="0.398438" y="0.0771484" width="308.578" height="220.402" filterUnits="userSpaceOnUse" color-interpolation-filters="sRGB">
<feFlood flood-opacity="0" result="BackgroundImageFix"/>
<feColorMatrix in="SourceAlpha" type="matrix" values="0 0 0 0 0 0 0 0 0 0 0 0 0 0 0 0 0 0 127 0" result="hardAlpha"/>
<feMorphology radius="1" operator="dilate" in="SourceAlpha" result="effect1_dropShadow_697_2387"/>
<feOffset dx="5" dy="5"/>
<feGaussianBlur stdDeviation="10"/>
<feComposite in2="hardAlpha" operator="out"/>
<feColorMatrix type="matrix" values="0 0 0 0 0 0 0 0 0 0 0 0 0 0 0 0 0 0 0.5 0"/>
<feBlend mode="normal" in2="BackgroundImageFix" result="effect1_dropShadow_697_2387"/>
<feBlend mode="normal" in="SourceGraphic" in2="effect1_dropShadow_697_2387" result="shape"/>
</filter>
<linearGradient id="paint0_linear_697_2387" x1="282.977" y1="105.278" x2="16.3979" y2="105.278" gradientUnits="userSpaceOnUse">
<stop stop-color="#FFD500"/>
<stop offset="1" stop-color="#FE7664"/>
</linearGradient>
</defs>
</svg>
