<svg width="309" height="221" viewBox="0 0 309 221" fill="none" xmlns="http://www.w3.org/2000/svg">
<g filter="url(#filter0_d_697_2409)">
<path d="M247.977 16.0771C267.307 16.0771 282.977 31.7472 282.977 51.0771V159.48C282.977 178.81 267.307 194.48 247.977 194.48H51.3978C32.0679 194.48 16.3979 178.81 16.3979 159.48V51.0771C16.3979 31.7472 32.0679 16.0771 51.3979 16.0771L247.977 16.0771Z" fill="#FF73B9" shape-rendering="crispEdges"/>
<path d="M282.477 51.0771V159.479C282.477 178.533 267.03 193.979 247.977 193.979H51.3975C32.3438 193.979 16.8975 178.533 16.8975 159.479V51.0771C16.8975 32.0235 32.3438 16.5774 51.3975 16.5771L247.977 16.5771C267.03 16.5771 282.477 32.0233 282.477 51.0771Z" stroke="#292929" shape-rendering="crispEdges"/>
<g filter="url(#filter1_d_697_2409)">
<path d="M247.977 16.0771C267.307 16.0771 282.977 31.7472 282.977 51.0771V159.48C282.977 178.81 267.307 194.48 247.977 194.48H51.3978C32.0679 194.48 16.3979 178.81 16.3979 159.48V51.0771C16.3979 31.7472 32.0679 16.0771 51.3979 16.0771L247.977 16.0771Z" fill="url(#paint0_linear_697_2409)"/>
<path d="M282.477 51.0771V159.479C282.477 178.533 267.03 193.979 247.977 193.979H51.3975C32.3438 193.979 16.8975 178.533 16.8975 159.479V51.0771C16.8975 32.0235 32.3438 16.5774 51.3975 16.5771L247.977 16.5771C267.03 16.5771 282.477 32.0233 282.477 51.0771Z" stroke="#292929"/>
</g>
<path d="M153.223 151.381C156.461 148.107 159.678 144.973 162.755 141.706C165.34 138.961 168.466 137.842 172.139 137.854C180.38 137.881 188.62 137.861 196.861 137.854C202.178 137.849 204.637 135.336 204.633 129.968C204.623 118.048 204.622 106.129 204.633 94.2095C204.633 93.3915 204.686 92.5577 204.848 91.7588C205.236 89.847 206.738 88.7566 208.646 88.9094C210.57 89.0634 211.877 90.3732 211.945 92.3309C212.003 94.0317 211.963 95.736 211.963 97.4388C211.963 108.644 211.968 119.849 211.961 131.055C211.956 138.946 205.788 145.213 197.982 145.232C189.469 145.253 180.955 145.266 172.442 145.216C170.572 145.205 169.107 145.755 167.781 147.121C163.433 151.597 158.999 155.989 154.604 160.42C151.095 163.958 146.911 163.969 143.375 160.417C138.971 155.995 134.557 151.583 130.196 147.118C128.926 145.819 127.529 145.204 125.698 145.215C117.13 145.267 108.562 145.251 99.9941 145.23C92.1809 145.211 85.9845 138.952 85.9819 131.083C85.9745 108.782 85.9742 86.4809 85.9847 64.1801C85.9885 56.3069 92.1862 50.0862 100.034 50.0841C132.614 50.0753 165.194 50.0748 197.774 50.083C205.845 50.085 211.943 56.2488 211.961 64.3798C211.969 67.7304 211.974 71.0811 211.958 74.4316C211.946 76.8182 210.628 78.3503 208.542 78.4571C206.521 78.5606 204.838 77.1112 204.719 74.7805C204.554 71.548 204.635 68.3024 204.626 65.0623C204.614 60.014 202.104 57.4642 197.075 57.4637C165.041 57.46 133.007 57.5139 100.973 57.4109C96.2999 57.3959 93.2434 60.5027 93.2695 65.1305C93.3916 86.8264 93.3934 108.524 93.2696 130.22C93.2421 135.041 96.6195 138.001 100.853 137.896C108.979 137.695 117.115 137.895 125.245 137.816C129.352 137.777 132.744 139.043 135.614 142.109C139.504 146.264 143.604 150.221 147.62 154.256C148.037 154.674 148.375 155.2 149.338 155.501C150.532 154.235 151.837 152.85 153.223 151.381Z" fill="white"/>
<path d="M108.891 123.721C105.793 124.805 103.698 123.471 103.362 120.302C102.427 111.499 105.974 104.861 113.111 99.9792C113.783 99.519 114.501 99.1262 115.407 98.5747C111.229 94.0977 109.429 88.9204 110.918 82.8967C111.835 79.1867 113.954 76.2306 117.044 74.0177C123.288 69.5464 131.979 70.2565 137.478 75.7017C140.63 78.8221 142.199 82.6843 142.145 87.1028C142.091 91.448 140.386 95.1871 137.391 98.1785C137.504 98.8741 137.981 98.9696 138.345 99.1784C145.268 103.148 149.109 109.107 149.625 117.127C149.715 118.524 149.466 119.981 149.151 121.359C148.675 123.447 146.892 124.49 144.795 124.108C143.114 123.801 141.842 121.899 142.033 119.981C142.713 113.18 140.09 108.263 134.204 105.305C126.732 101.549 117.314 103.708 112.81 110.298C110.931 113.048 110.024 116.091 110.672 119.495C110.995 121.189 110.508 122.652 108.891 123.721ZM122.099 94.2475C122.654 94.4715 123.198 94.7317 123.766 94.9137C127.587 96.1375 131.633 94.5195 133.737 90.9428C135.59 87.7952 135.011 83.5973 132.361 80.9553C129.646 78.2492 124.999 77.6945 121.791 79.6936C116.278 83.1282 116.328 90.3661 122.099 94.2475Z" fill="white"/>
<path d="M190.578 85.4764C182.739 93.2044 174.97 100.836 167.246 108.514C166.235 109.52 165.593 109.698 164.501 108.557C160.868 104.762 157.118 101.081 153.418 97.3499C152.723 96.6496 152.032 95.938 151.846 94.9019C151.551 93.2529 152.215 91.7807 153.615 90.984C155.049 90.1676 156.644 90.3137 157.98 91.5848C160.16 93.6585 162.255 95.8217 164.391 97.9418C164.815 98.3619 165.262 98.7578 165.67 99.139C166.546 99.0402 166.939 98.3842 167.427 97.906C174.149 91.3182 180.854 84.7139 187.57 78.1199C188.116 77.5845 188.661 77.0308 189.284 76.5976C190.813 75.5337 192.711 75.7145 193.921 76.9666C195.164 78.2534 195.39 80.357 194.223 81.7738C193.15 83.0756 191.858 84.1949 190.578 85.4764Z" fill="white"/>
</g>
<defs>
<filter id="filter0_d_697_2409" x="0.398438" y="0.0771484" width="308.578" height="220.403" filterUnits="userSpaceOnUse" color-interpolation-filters="sRGB">
<feFlood flood-opacity="0" result="BackgroundImageFix"/>
<feColorMatrix in="SourceAlpha" type="matrix" values="0 0 0 0 0 0 0 0 0 0 0 0 0 0 0 0 0 0 127 0" result="hardAlpha"/>
<feMorphology radius="1" operator="dilate" in="SourceAlpha" result="effect1_dropShadow_697_2409"/>
<feOffset dx="5" dy="5"/>
<feGaussianBlur stdDeviation="10"/>
<feComposite in2="hardAlpha" operator="out"/>
<feColorMatrix type="matrix" values="0 0 0 0 0 0 0 0 0 0 0 0 0 0 0 0 0 0 0.5 0"/>
<feBlend mode="normal" in2="BackgroundImageFix" result="effect1_dropShadow_697_2409"/>
<feBlend mode="normal" in="SourceGraphic" in2="effect1_dropShadow_697_2409" result="shape"/>
</filter>
<filter id="filter1_d_697_2409" x="0.398438" y="0.0771484" width="308.578" height="220.403" filterUnits="userSpaceOnUse" color-interpolation-filters="sRGB">
<feFlood flood-opacity="0" result="BackgroundImageFix"/>
<feColorMatrix in="SourceAlpha" type="matrix" values="0 0 0 0 0 0 0 0 0 0 0 0 0 0 0 0 0 0 127 0" result="hardAlpha"/>
<feMorphology radius="1" operator="dilate" in="SourceAlpha" result="effect1_dropShadow_697_2409"/>
<feOffset dx="5" dy="5"/>
<feGaussianBlur stdDeviation="10"/>
<feComposite in2="hardAlpha" operator="out"/>
<feColorMatrix type="matrix" values="0 0 0 0 0 0 0 0 0 0 0 0 0 0 0 0 0 0 0.5 0"/>
<feBlend mode="normal" in2="BackgroundImageFix" result="effect1_dropShadow_697_2409"/>
<feBlend mode="normal" in="SourceGraphic" in2="effect1_dropShadow_697_2409" result="shape"/>
</filter>
<linearGradient id="paint0_linear_697_2409" x1="282.977" y1="105.278" x2="16.3979" y2="105.278" gradientUnits="userSpaceOnUse">
<stop stop-color="#FFD500"/>
<stop offset="1" stop-color="#FE7664"/>
</linearGradient>
</defs>
</svg>
