<svg width="309" height="221" viewBox="0 0 309 221" fill="none" xmlns="http://www.w3.org/2000/svg">
<g filter="url(#filter0_d_697_2405)">
<path d="M247.977 16.0771C267.307 16.0771 282.977 31.7472 282.977 51.0771V159.48C282.977 178.81 267.307 194.48 247.977 194.48H51.3978C32.0679 194.48 16.3979 178.81 16.3979 159.48V51.0771C16.3979 31.7472 32.0679 16.0771 51.3979 16.0771L247.977 16.0771Z" fill="#FF73B9" shape-rendering="crispEdges"/>
<path d="M282.477 51.0771V159.479C282.477 178.533 267.03 193.979 247.977 193.979H51.3975C32.3438 193.979 16.8975 178.533 16.8975 159.479V51.0771C16.8975 32.0235 32.3438 16.5774 51.3975 16.5771L247.977 16.5771C267.03 16.5771 282.477 32.0233 282.477 51.0771Z" stroke="#292929" shape-rendering="crispEdges"/>
<g filter="url(#filter1_d_697_2405)">
<path d="M247.977 16.0771C267.307 16.0771 282.977 31.7472 282.977 51.0771V159.48C282.977 178.81 267.307 194.48 247.977 194.48H51.3978C32.0679 194.48 16.3979 178.81 16.3979 159.48V51.0771C16.3979 31.7472 32.0679 16.0771 51.3979 16.0771L247.977 16.0771Z" fill="url(#paint0_linear_697_2405)"/>
<path d="M282.477 51.0771V159.479C282.477 178.533 267.03 193.979 247.977 193.979H51.3975C32.3438 193.979 16.8975 178.533 16.8975 159.479V51.0771C16.8975 32.0235 32.3438 16.5774 51.3975 16.5771L247.977 16.5771C266.733 16.5771 281.992 31.5443 282.465 50.1865L282.477 51.0771Z" stroke="#292929"/>
</g>
<path d="M212.731 157.909C212.553 157.883 212.44 157.721 212.361 157.736C209.27 158.329 206.395 157.426 203.666 156.215C199.624 154.423 195.714 152.336 191.706 150.464C181.589 145.74 171.458 141.046 161.316 136.377C149.895 131.119 150.379 129.147 138.991 123.818C137.318 123.035 141.023 124.553 139.601 123.317C136.035 120.221 141.594 121.832 140.1 117.214C139.895 116.581 139.722 115.937 139.515 115.222C139.497 115.146 139.584 115.087 139.628 115.058C139.986 115.237 140.282 115.485 140.618 115.649C160.363 125.27 154.376 123.714 174.115 133.348C175.401 133.976 176.618 134.758 177.824 135.535C180.507 137.265 182.584 137.184 185.184 135.253C186.561 134.23 187.903 133.105 189.417 132.332C192.779 130.615 196.36 130.852 199.909 131.672C204.913 132.828 209.503 134.814 213.141 138.601C213.226 138.689 213.392 138.698 213.598 138.726C214.818 140.404 215.959 142.099 217.107 143.936C217.267 145.034 217.508 145.987 217.555 146.948C217.709 150.063 216.556 152.841 215.214 155.562C215.107 155.778 215.135 156.062 215.1 156.314C214.338 156.827 213.575 157.341 212.731 157.909ZM187.105 139.482C187.155 139.28 187.204 139.078 187.275 138.791C186.995 138.871 186.771 138.935 186.468 139.021C186.725 139.268 186.892 139.427 187.013 139.711C187.066 140.264 187.283 140.633 188.002 140.664C188.384 142.587 189.296 143.963 191.205 144.867C195.613 146.954 199.907 149.281 204.259 151.488C205.879 152.31 207.584 152.836 209.435 152.62C212.48 152.265 213.942 150.05 212.793 147.234C212.207 145.798 211.346 144.405 210.34 143.22C206.767 139.012 201.945 137.139 196.646 136.292C194.462 135.943 192.297 136.089 190.242 136.994C189.097 137.498 188.022 138.109 187.756 139.64C187.523 139.622 187.29 139.604 187.105 139.482Z" fill="white"/>
<path d="M160.606 72.4517C160.77 72.5491 160.852 72.7174 160.985 72.8178C165.462 76.1952 168.124 80.9656 170.756 85.7266C171.28 86.6758 171.356 87.9551 171.378 89.0874C171.638 102.151 171.847 115.215 172.068 128.279C172.075 128.663 172.071 129.047 172.073 129.598C170.336 128.786 168.76 127.862 167.064 127.303C164.901 126.589 164.24 125.319 164.094 123.047C163.052 106.824 161.833 90.6126 160.664 74.398C160.624 73.8442 160.52 73.2951 160.38 72.6959C160.392 72.5957 160.47 72.5433 160.606 72.4517Z" fill="white"/>
<path d="M155.333 177.842C155.283 177.501 155.358 177.218 155.282 176.986C153.767 172.355 153.98 167.864 156.787 163.799C157.745 162.411 159.277 161.381 160.658 160.334C161.713 159.533 162.961 158.991 164.092 158.284C165.443 157.44 166.086 156.122 166.227 154.592C166.326 153.517 166.309 152.42 166.223 151.342C165.952 147.953 165.624 144.568 165.305 141.038C165.667 141.157 165.922 141.215 166.155 141.322C168.005 142.17 169.838 143.057 171.705 143.866C172.306 144.127 172.521 144.473 172.591 145.104C173.374 152.182 174.154 159.26 175.007 166.329C175.373 169.363 175.812 172.374 175.359 175.441C174.527 181.08 170.781 183.997 165.327 184.713C163.203 184.992 161.327 184.222 159.604 183.027C159.273 182.798 158.924 182.596 158.521 182.433C157.435 180.965 156.412 179.444 155.333 177.842ZM168.325 179.222C168.956 178.28 169.923 177.415 170.157 176.383C171.034 172.513 170.47 168.704 168.914 165.085C168.176 163.37 166.735 162.85 164.99 163.504C164.087 163.842 163.179 164.318 162.447 164.937C159.102 167.761 158.357 174.073 160.875 177.659C162.637 180.169 165.552 180.836 168.325 179.222Z" fill="white"/>
<path d="M187.829 139.603C187.925 139.841 187.948 140.117 187.949 140.457C187.284 140.634 187.067 140.265 187.036 139.649C187.058 139.586 187.057 139.586 187.057 139.586C187.29 139.604 187.524 139.622 187.829 139.603Z" fill="white"/>
<path d="M187.058 139.586C186.892 139.426 186.725 139.268 186.468 139.021C186.771 138.935 186.995 138.871 187.275 138.791C187.204 139.078 187.155 139.28 187.081 139.534C187.057 139.585 187.058 139.585 187.058 139.586Z" fill="white"/>
<path d="M122.116 33.0771C125.847 33.8455 129.362 34.8671 132.482 36.9327C138.891 41.175 142.739 47.0565 143.92 54.6817C144.114 55.934 144.147 57.1753 144.147 58.4262C144.151 76.9937 144.166 95.5612 144.141 114.129C144.126 126.013 134.374 136.983 122.571 138.367C111.386 139.679 102.799 135.46 96.9 125.907C94.7304 122.394 93.5931 118.476 93.5864 114.324C93.5558 95.4966 93.5508 76.6694 93.5799 57.8423C93.5955 47.745 100.009 38.4913 109.439 34.769C111.339 34.0188 113.306 33.5405 115.393 33.1162C117.654 33.0771 119.824 33.0771 122.116 33.0771ZM138.783 53.5356C136.192 42.5973 125.096 35.7593 114.097 38.3702C105.076 40.5114 98.4519 48.6812 98.4258 57.9292C98.3734 76.4553 98.4086 94.9816 98.4076 113.508C98.4075 117.51 99.5406 121.166 101.729 124.513C106.507 131.823 115.593 135.393 123.776 133.245C132.95 130.838 139.367 122.618 139.335 113.3C139.271 94.6005 139.303 75.901 139.298 57.2017C139.298 56.0268 139.077 54.8856 138.783 53.5356Z" fill="white"/>
<path d="M104.176 166.077C103.492 165.483 102.854 164.942 102.723 164.059C102.501 162.561 103.726 161.362 105.625 161.339C108.698 161.302 111.773 161.275 114.844 161.353C116.081 161.384 116.505 161.03 116.462 159.756C116.371 157.032 116.36 154.3 116.468 151.578C116.52 150.288 115.961 149.918 114.851 149.818C110.046 149.385 105.518 147.979 101.327 145.625C91.9539 140.361 85.8392 132.548 83.1418 122.091C82.2149 118.498 82.0428 114.841 81.9978 111.168C81.9575 107.879 81.9853 104.589 81.9942 101.299C81.9957 100.738 82.0211 100.174 82.0912 99.6177C82.2795 98.1237 83.2125 97.1764 84.4565 97.1738C85.6948 97.1713 86.5755 97.9991 86.8276 99.4599C86.9151 99.9672 86.9316 100.491 86.9342 101.008C86.9572 105.553 86.8661 110.101 87.0077 114.642C87.2724 123.126 90.6118 130.318 96.6399 136.229C101.953 141.438 108.391 144.582 115.789 145.126C128.375 146.052 138.413 141.218 145.566 130.761C149.179 125.48 150.824 119.54 150.786 113.132C150.761 108.934 150.776 104.735 150.801 100.537C150.808 99.3563 150.892 98.1597 152.123 97.5011C153.635 96.6916 155.4 97.5816 155.582 99.3396C155.907 102.488 155.733 105.654 155.685 108.809C155.63 112.43 155.737 116.055 155.1 119.662C153.869 126.63 150.88 132.716 146.158 137.938C140.284 144.434 132.942 148.273 124.321 149.711C121.28 150.218 121.281 150.229 121.282 153.365C121.282 155.572 121.326 157.781 121.268 159.987C121.241 160.992 121.552 161.365 122.592 161.347C125.664 161.294 128.738 161.33 131.811 161.329C132.691 161.329 133.556 161.421 134.242 162.036C135.437 163.107 135.26 164.492 133.721 166.006C123.877 166.077 114.088 166.077 104.176 166.077Z" fill="white"/>
</g>
<defs>
<filter id="filter0_d_697_2405" x="0.398438" y="0.0771484" width="308.578" height="220.402" filterUnits="userSpaceOnUse" color-interpolation-filters="sRGB">
<feFlood flood-opacity="0" result="BackgroundImageFix"/>
<feColorMatrix in="SourceAlpha" type="matrix" values="0 0 0 0 0 0 0 0 0 0 0 0 0 0 0 0 0 0 127 0" result="hardAlpha"/>
<feMorphology radius="1" operator="dilate" in="SourceAlpha" result="effect1_dropShadow_697_2405"/>
<feOffset dx="5" dy="5"/>
<feGaussianBlur stdDeviation="10"/>
<feComposite in2="hardAlpha" operator="out"/>
<feColorMatrix type="matrix" values="0 0 0 0 0 0 0 0 0 0 0 0 0 0 0 0 0 0 0.5 0"/>
<feBlend mode="normal" in2="BackgroundImageFix" result="effect1_dropShadow_697_2405"/>
<feBlend mode="normal" in="SourceGraphic" in2="effect1_dropShadow_697_2405" result="shape"/>
</filter>
<filter id="filter1_d_697_2405" x="0.398438" y="0.0771484" width="308.578" height="220.402" filterUnits="userSpaceOnUse" color-interpolation-filters="sRGB">
<feFlood flood-opacity="0" result="BackgroundImageFix"/>
<feColorMatrix in="SourceAlpha" type="matrix" values="0 0 0 0 0 0 0 0 0 0 0 0 0 0 0 0 0 0 127 0" result="hardAlpha"/>
<feMorphology radius="1" operator="dilate" in="SourceAlpha" result="effect1_dropShadow_697_2405"/>
<feOffset dx="5" dy="5"/>
<feGaussianBlur stdDeviation="10"/>
<feComposite in2="hardAlpha" operator="out"/>
<feColorMatrix type="matrix" values="0 0 0 0 0 0 0 0 0 0 0 0 0 0 0 0 0 0 0.5 0"/>
<feBlend mode="normal" in2="BackgroundImageFix" result="effect1_dropShadow_697_2405"/>
<feBlend mode="normal" in="SourceGraphic" in2="effect1_dropShadow_697_2405" result="shape"/>
</filter>
<linearGradient id="paint0_linear_697_2405" x1="282.977" y1="105.278" x2="16.3979" y2="105.278" gradientUnits="userSpaceOnUse">
<stop stop-color="#FFD500"/>
<stop offset="1" stop-color="#FE7664"/>
</linearGradient>
</defs>
</svg>
