<svg width="309" height="221" viewBox="0 0 309 221" fill="none" xmlns="http://www.w3.org/2000/svg">
<g filter="url(#filter0_d_697_2390)">
<path d="M247.977 16.0771C267.307 16.0771 282.977 31.7472 282.977 51.0771V159.48C282.977 178.81 267.307 194.48 247.977 194.48H51.3978C32.0679 194.48 16.3979 178.81 16.3979 159.48V51.0771C16.3979 31.7472 32.0679 16.0771 51.3979 16.0771L247.977 16.0771Z" fill="#FF73B9" shape-rendering="crispEdges"/>
<path d="M282.477 51.0771V159.479C282.477 178.533 267.03 193.979 247.977 193.979H51.3975C32.3438 193.979 16.8975 178.533 16.8975 159.479V51.0771C16.8975 32.0235 32.3438 16.5774 51.3975 16.5771L247.977 16.5771C267.03 16.5771 282.477 32.0233 282.477 51.0771Z" stroke="#292929" shape-rendering="crispEdges"/>
<g filter="url(#filter1_d_697_2390)">
<path d="M247.977 16.0771C267.307 16.0771 282.977 31.7472 282.977 51.0771V159.48C282.977 178.81 267.307 194.48 247.977 194.48H51.3978C32.0679 194.48 16.3979 178.81 16.3979 159.48V51.0771C16.3979 31.7472 32.0679 16.0771 51.3979 16.0771L247.977 16.0771Z" fill="url(#paint0_linear_697_2390)"/>
<path d="M282.477 51.0771V159.479C282.477 178.533 267.03 193.979 247.977 193.979H51.3975C32.3438 193.979 16.8975 178.533 16.8975 159.479V51.0771C16.8975 32.0235 32.3438 16.5774 51.3975 16.5771L247.977 16.5771C267.03 16.5771 282.477 32.0233 282.477 51.0771Z" stroke="#292929"/>
</g>
<path d="M183.433 153.213C183.432 157.201 183.444 161.077 183.426 164.952C183.406 169.342 180.537 172.904 176.264 173.917C175.71 174.048 175.16 174.074 174.601 174.075C159.231 174.075 143.86 174.079 128.49 174.075C123.892 174.074 120.496 171.52 119.19 167.145C118.959 166.37 119.035 165.602 119.035 164.822C119.039 151.405 119.028 137.989 119.049 124.572C119.051 123.696 118.781 123.371 117.895 123.203C111.405 121.974 107.088 117.76 106.156 111.243C104.951 102.826 109.935 96.0771 117.613 94.7439C118.697 94.5555 119.174 94.1585 119.053 93.0148C118.936 91.9001 119.298 90.7101 118.282 89.7847C118.099 89.618 118.17 89.1449 118.168 88.813C118.16 86.6888 118.156 84.5644 118.168 82.4402C118.172 81.5648 118.059 80.7089 118.682 79.8895C119.025 79.4379 119.072 78.5971 118.666 78.0842C118.168 77.4546 118.165 76.7982 118.168 76.0905C118.174 74.4135 118.138 72.7356 118.179 71.0595C118.208 69.8619 118.21 68.7193 118.673 67.4936C119.112 66.3322 119.215 64.8035 118.385 63.5215C117.974 62.8879 118.158 62.1345 118.184 61.4407C118.231 60.1726 117.901 58.8803 118.741 57.6616C119.06 57.1975 118.842 56.3574 118.854 55.6884C118.896 53.4566 118.614 51.2092 118.994 48.9954C119.825 44.1458 123.387 41.1217 128.352 41.0992C137.044 41.0597 145.736 41.0851 154.429 41.0865C160.883 41.0875 167.337 41.0859 173.791 41.1001C178.59 41.1106 182.228 43.9822 183.304 48.6419C183.58 49.8372 183.505 51.0682 183.492 52.3003C183.431 58.2626 183.459 64.2258 183.464 70.1887C183.464 70.4413 183.463 70.8124 183.615 70.927C184.565 71.6447 184.324 72.6527 184.33 73.5942C184.343 75.8302 184.377 78.0676 184.312 80.3019C184.287 81.1952 184.585 81.627 185.42 81.9427C190.537 83.8775 193.718 87.5463 194.725 92.9114C196.046 99.9441 192.062 106.983 184.988 109.209C183.858 109.564 183.397 110.03 183.401 111.287C183.45 125.225 183.433 139.163 183.433 153.213ZM151.697 49.2798C147.369 49.2708 143.04 49.2855 138.712 49.2445C135.887 49.2177 134.618 48.1187 134.285 45.4544C134.188 44.6844 133.743 44.569 133.129 44.5719C131.375 44.58 129.62 44.5429 127.868 44.6018C124.817 44.7044 122.383 46.989 122.336 49.9712C122.256 55.058 122.314 60.1469 122.314 65.4331C124.169 56.2215 132.152 50.7429 140.872 51.6341C148.741 52.4384 155.287 59.3605 155.724 66.8683C156.255 75.9829 149.958 83.5238 141.328 84.721C136.909 85.334 132.802 84.3959 129.133 81.773C125.472 79.1552 123.294 75.5813 122.325 71.037C122.325 71.8299 122.325 72.4255 122.325 73.021C122.32 79.8801 122.326 86.7392 122.295 93.5981C122.291 94.3839 122.562 94.7042 123.324 94.8702C128.622 96.0252 133.283 100.715 134.053 106.923C134.951 114.172 130.69 121.186 123.646 122.896C122.532 123.167 122.284 123.671 122.286 124.722C122.308 137.881 122.359 151.041 122.238 164.199C122.202 167.998 125.044 170.881 128.87 170.846C139.84 170.747 150.812 170.81 161.782 170.809C165.738 170.808 169.693 170.825 173.649 170.803C177.216 170.783 180.145 168.861 180.015 164.464C179.814 157.611 179.959 150.748 179.958 143.888C179.958 143.371 179.958 142.853 179.958 142.044C177.052 149.074 171.097 152.745 164.308 151.917C157.845 151.128 152.693 146.142 151.81 139.435C150.968 133.042 154.098 127.145 160.152 124.407C163.864 122.728 167.675 122.658 171.467 124.121C175.253 125.581 177.87 128.332 179.577 131.998C179.946 131.717 179.94 131.45 179.94 131.192C179.945 124.408 179.944 117.623 179.957 110.839C179.958 110.185 179.707 109.955 179.04 109.887C171.244 109.096 165.938 102.428 166.017 95.3321C166.094 88.3903 171.231 82.0644 178.826 81.1695C179.786 81.0564 179.978 80.7169 179.976 79.8609C179.956 69.9077 179.969 59.9544 179.96 50.0012C179.957 47.6082 178.245 45.3693 175.939 44.8296C173.587 44.2791 171.184 44.6448 168.804 44.5982C168.378 44.5898 168.233 44.8741 168.218 45.2596C168.1 48.3868 165.725 49.2854 163.452 49.2749C159.608 49.2573 155.764 49.2762 151.697 49.2798ZM106.779 106.542C106.625 108.322 106.552 110.097 106.876 111.873C108.242 119.378 116.041 124.323 123.403 122.338C130.615 120.394 134.802 113.396 133.265 105.856C131.982 99.5655 126.307 94.9985 119.936 95.1303C113.269 95.2683 107.887 99.8754 106.779 106.542ZM143.771 52.8826C139.035 51.4731 134.528 52.0406 130.346 54.6352C124.785 58.085 121.938 64.132 122.872 70.378C124.249 79.5872 132.78 85.5706 141.692 84.052C149.356 82.7463 156.18 75.5705 155.01 66.3111C154.17 59.6623 150.225 55.2517 143.771 52.8826ZM154.332 144.761C157.554 149.683 162.148 151.988 167.951 151.26C175.95 150.258 181.181 142.771 179.719 134.819C178.321 127.213 170.158 122.104 162.699 124.168C153.644 126.674 149.62 136.411 154.332 144.761ZM166.673 96.8724C167.765 105.146 174.848 110.421 182.989 109.093C189.232 108.075 195.548 101.901 194.175 93.3027C192.569 83.2456 181.143 78.3834 172.715 84.1045C168.328 87.0826 166.368 91.3656 166.673 96.8724ZM180.974 74.3698C180.975 75.5252 180.932 76.6827 180.988 77.8354C181.039 78.911 180.709 80.0496 181.245 81.1593C181.936 80.7483 181.743 80.2493 181.745 79.8384C181.767 75.328 181.774 70.8174 181.775 66.3068C181.777 60.9016 181.819 55.4958 181.749 50.0914C181.701 46.4133 178.344 42.9551 174.973 43.0456C173.183 43.0937 171.398 43.0857 169.608 43.0709C162.743 43.0138 155.878 43.0189 149.012 43.0359C141.85 43.0536 134.688 43.1391 127.526 43.1289C126.105 43.1269 124.883 43.5304 123.758 44.2956C121.459 45.8597 120.567 48.156 120.549 50.8347C120.521 55.0096 120.541 59.1848 120.54 63.3599C120.54 73.2758 120.536 83.1917 120.55 93.1075C120.55 93.5637 120.311 94.1545 120.972 94.4714C121.434 94.1064 121.29 93.6276 121.292 93.2099C121.302 89.8923 121.296 86.5745 121.295 83.2568C121.294 72.409 121.286 61.5612 121.295 50.7134C121.297 47.5074 122.814 45.1996 125.669 44.0894C128.252 43.0854 130.953 43.3048 133.624 43.5323C134.5 43.607 135.209 44.139 135.286 45.2002C135.445 47.3877 136.356 48.2428 138.541 48.2462C146.936 48.2591 155.332 48.264 163.728 48.2588C166.048 48.2574 166.977 47.4146 167.209 45.1421C167.312 44.1295 167.817 43.5596 168.857 43.5579C170.972 43.5544 173.066 43.3097 175.207 43.7055C178.593 44.3316 180.968 46.8802 180.97 50.3256C180.975 58.2658 180.973 66.206 180.974 74.3698ZM168.265 171.64C157.332 171.638 146.399 171.629 135.466 171.639C133.267 171.642 131.067 171.767 128.868 171.749C124.138 171.708 121.294 168.815 121.29 164.104C121.287 160.861 121.294 157.618 121.294 154.375C121.296 144.459 121.299 134.544 121.287 124.628C121.287 124.204 121.503 123.644 120.864 123.396C120.345 123.833 120.548 124.395 120.548 124.881C120.535 138.039 120.572 151.198 120.52 164.357C120.5 169.366 124.477 172.475 128.606 172.438C143.792 172.303 158.98 172.301 174.166 172.435C178.107 172.47 181.941 169.191 181.814 164.743C181.649 158.932 181.761 153.114 181.759 147.299C181.756 135.333 181.759 123.367 181.744 111.401C181.744 110.929 181.947 110.361 181.37 109.953C180.804 110.35 180.998 110.915 180.997 111.387C180.981 129.28 180.981 147.173 180.968 165.065C180.965 168.925 178.288 171.594 174.422 171.625C172.445 171.641 170.467 171.636 168.265 171.64ZM119.65 161.195C119.65 161.415 119.65 161.636 119.65 161.857C119.667 161.857 119.684 161.857 119.701 161.857C119.701 159.909 119.701 157.961 119.701 155.76C119.673 156.087 119.661 156.16 119.661 156.234C119.657 157.827 119.654 159.421 119.65 161.195Z" fill="white"/>
<path d="M113.951 105.488C115.034 102.38 117.449 100.94 120.917 101.252C123.639 101.496 125.749 103.494 126.26 106.31C126.823 109.41 124.886 112.194 121.83 112.702C121.024 112.835 120.279 112.601 119.534 112.38C118.835 112.172 118.398 112.289 118.251 113.095C118.112 113.861 117.883 114.61 117.699 115.368C117.574 115.883 117.43 116.572 116.81 116.445C116.069 116.294 116.3 115.537 116.412 115.024C116.937 112.631 117.505 110.246 118.063 107.86C118.232 107.136 118.422 106.417 118.592 105.694C118.694 105.262 118.954 105.028 119.392 105.113C119.866 105.205 119.763 105.565 119.704 105.91C119.511 107.044 119.292 108.176 119.165 109.319C119.02 110.615 120.189 111.644 121.481 111.424C124.298 110.945 125.893 107.43 124.409 104.969C123.409 103.31 121.179 102.19 119.349 102.567C117.388 102.97 115.791 103.88 115.257 106.033C115.057 106.841 115.262 107.584 115.45 108.336C115.57 108.812 115.707 109.267 115.458 109.734C114.256 109.661 113.796 108.4 113.951 105.488Z" fill="white"/>
<path d="M141.956 75.9126C138.751 75.9089 135.657 75.9104 132.564 75.8986C130.154 75.8893 128.922 74.6726 128.903 72.249C128.882 69.5312 128.88 66.813 128.905 64.0953C128.925 61.8881 130.27 60.5534 132.481 60.5449C136.804 60.5284 141.127 60.5307 145.451 60.5432C147.569 60.5494 148.952 61.9218 148.964 64.021C148.98 66.8506 148.985 69.6804 148.967 72.5099C148.954 74.6182 147.744 75.8408 145.646 75.891C144.454 75.9195 143.261 75.9065 141.956 75.9126ZM130.932 62.9479C130.691 63.3406 130.603 63.7682 130.604 64.2267C130.608 66.8698 130.59 69.5131 130.611 72.156C130.622 73.5203 131.285 74.2461 132.676 74.2537C136.96 74.2769 141.245 74.2363 145.53 74.2149C146.588 74.2096 147.172 73.6951 147.304 72.617C147.649 69.7964 147.472 66.9674 147.408 64.1463C147.376 62.7367 146.578 62.1794 144.952 62.1681C140.965 62.1405 136.977 62.1543 132.99 62.1671C132.283 62.1694 131.559 62.1988 130.932 62.9479Z" fill="white"/>
<path d="M161.185 129.99C163.51 129.799 165.745 129.853 167.979 129.971C168.722 130.011 169.465 130.09 170.208 130.097C172.268 130.119 173.75 131.457 173.805 133.547C173.874 136.154 173.868 138.765 173.808 141.372C173.759 143.505 172.321 144.994 170.17 145.198C169.171 145.293 168.157 145.238 167.15 145.231C166.676 145.228 166.182 145.09 166.181 144.538C166.179 144.041 166.689 143.913 167.089 143.878C167.829 143.812 168.576 143.829 169.321 143.809C171.405 143.751 172.277 143.136 172.448 141.11C172.662 138.593 172.739 136.047 172.376 133.531C172.152 131.98 171.271 131.198 169.74 131.166C167.316 131.115 164.889 131.11 162.466 131.172C160.839 131.214 159.785 132.368 159.742 134.13C159.686 136.365 159.687 138.603 159.742 140.837C159.784 142.518 160.523 143.346 162.143 143.749C162.689 143.884 163.253 143.976 163.465 144.684C162.872 145.232 162.198 145.31 161.433 145.093C159.616 144.579 158.498 143.247 158.467 141.36C158.424 138.752 158.4 136.141 158.471 133.535C158.519 131.811 159.413 130.592 161.185 129.99Z" fill="white"/>
<path d="M169.982 141.214C169.165 141.943 168.883 141.444 168.81 140.738C168.738 140.04 168.776 139.329 168.78 138.624C168.782 138.031 168.584 137.57 167.93 137.54C167.23 137.508 166.941 137.994 166.899 138.607C166.851 139.309 166.883 140.017 166.865 140.722C166.856 141.089 166.886 141.524 166.364 141.564C165.784 141.607 165.711 141.16 165.704 140.74C165.683 139.441 165.681 138.142 165.686 136.843C165.688 136.117 166.021 135.811 166.755 136.06C166.894 136.107 167.043 136.135 167.19 136.148C170.018 136.395 170.019 136.395 170.02 139.241C170.02 139.872 170.015 140.502 169.982 141.214Z" fill="white"/>
<path d="M163.514 137.389C163.513 138.5 163.518 139.505 163.503 140.511C163.496 141.016 163.429 141.549 162.763 141.539C162.168 141.531 162.087 141.037 162.081 140.571C162.067 139.491 162.068 138.41 162.077 137.33C162.081 136.865 162.134 136.405 162.767 136.394C163.38 136.383 163.496 136.793 163.514 137.389Z" fill="white"/>
<path d="M162.255 135.368C161.999 134.896 161.936 134.495 162.382 134.232C162.694 134.048 163.028 134.102 163.295 134.372C163.5 134.58 163.542 134.839 163.412 135.088C163.171 135.55 162.816 135.732 162.255 135.368Z" fill="white"/>
<path d="M180.467 89.2676C179.088 89.2823 177.819 89.2598 176.553 89.3218C175.277 89.3844 174.4 90.1418 174.294 91.3784C174.072 93.973 173.932 96.5696 174.185 99.1802C174.319 100.572 175.061 101.316 176.279 101.773C176.776 101.96 177.399 101.975 177.644 102.594C176.479 103.504 174.723 103.144 173.681 101.766C173.108 101.007 172.785 100.14 172.785 99.1729C172.784 96.7145 172.756 94.2556 172.792 91.7977C172.827 89.4187 174.455 87.8413 176.855 87.8241C179.241 87.8071 181.627 87.8143 184.014 87.8326C186.564 87.8521 188.095 89.4208 188.164 91.9435C188.226 94.175 188.375 96.4023 188.161 98.6348C187.875 101.606 186.573 103.324 183.581 103.2C182.836 103.169 182.089 103.187 181.344 103.186C180.895 103.185 180.457 103.064 180.44 102.565C180.422 102.045 180.873 101.943 181.313 101.923C182.426 101.871 183.546 102.012 184.651 101.723C185.86 101.407 186.515 100.729 186.676 99.5039C187.033 96.7911 186.824 94.0771 186.651 91.3676C186.576 90.1923 185.667 89.3926 184.381 89.3224C183.116 89.2534 181.847 89.2818 180.467 89.2676Z" fill="white"/>
<path d="M180.078 99.3489C177.193 98.5626 175.961 96.292 177.056 93.9381C177.721 92.5082 179.655 91.472 181.109 91.7673C182.906 92.1322 184.202 93.5726 184.299 95.3132C184.396 97.0296 183.277 98.6238 181.596 99.1119C181.136 99.2454 180.647 99.2799 180.078 99.3489ZM181.255 97.821C181.524 97.6255 181.87 97.4834 182.048 97.2255C182.949 95.924 183.142 94.8754 181.978 93.7665C181.053 92.885 179.805 92.9 178.786 93.8413C177.899 94.6611 177.843 96.0799 178.664 97.0712C179.302 97.8421 180.154 97.9799 181.255 97.821Z" fill="white"/>
<path d="M154.848 44.4515C155.644 44.568 156.201 44.863 156.097 45.6697C155.992 46.4852 155.321 46.5754 154.661 46.578C152.356 46.5868 150.05 46.5767 147.745 46.5877C147.007 46.5912 146.295 46.43 146.297 45.5813C146.298 44.7783 147.016 44.4784 147.72 44.4672C150.061 44.43 152.404 44.4488 154.848 44.4515Z" fill="white"/>
<path d="M158.686 47.0141C157.841 47.0771 157.284 46.7804 156.999 46.07C156.783 45.5327 156.91 45.0156 157.31 44.6292C157.711 44.242 158.175 43.8919 158.804 44.1661C159.391 44.4223 159.841 44.8584 159.862 45.4922C159.885 46.2078 159.521 46.773 158.686 47.0141ZM158.127 45.2054C157.851 45.5192 157.841 45.8074 158.263 45.974C158.483 46.0606 158.744 45.9668 158.795 45.7248C158.881 45.3174 158.665 45.1114 158.127 45.2054Z" fill="white"/>
<path d="M137.69 65.0098C139.286 65.3081 140.525 66.1507 141.732 67.0098C142.554 67.5945 142.474 68.8909 141.646 69.5066C140.477 70.3764 139.173 71.0209 137.867 71.6543C137.385 71.8877 136.845 71.9261 136.58 71.4398C136.334 70.9891 136.714 70.571 137.093 70.3237C138.15 69.6349 139.234 68.9883 140.492 68.2106C139.638 67.7684 138.914 67.3938 138.21 67.0291C137.714 67.4951 137.752 68.0591 137.605 68.5409C137.48 68.9524 137.343 69.2186 136.866 69.1707C136.356 69.1195 136.31 68.7514 136.304 68.3645C136.295 67.7324 136.316 67.0996 136.298 66.4679C136.272 65.5652 136.676 65.0639 137.69 65.0098Z" fill="white"/>
</g>
<defs>
<filter id="filter0_d_697_2390" x="0.398438" y="0.0771484" width="308.578" height="220.402" filterUnits="userSpaceOnUse" color-interpolation-filters="sRGB">
<feFlood flood-opacity="0" result="BackgroundImageFix"/>
<feColorMatrix in="SourceAlpha" type="matrix" values="0 0 0 0 0 0 0 0 0 0 0 0 0 0 0 0 0 0 127 0" result="hardAlpha"/>
<feMorphology radius="1" operator="dilate" in="SourceAlpha" result="effect1_dropShadow_697_2390"/>
<feOffset dx="5" dy="5"/>
<feGaussianBlur stdDeviation="10"/>
<feComposite in2="hardAlpha" operator="out"/>
<feColorMatrix type="matrix" values="0 0 0 0 0 0 0 0 0 0 0 0 0 0 0 0 0 0 0.5 0"/>
<feBlend mode="normal" in2="BackgroundImageFix" result="effect1_dropShadow_697_2390"/>
<feBlend mode="normal" in="SourceGraphic" in2="effect1_dropShadow_697_2390" result="shape"/>
</filter>
<filter id="filter1_d_697_2390" x="0.398438" y="0.0771484" width="308.578" height="220.402" filterUnits="userSpaceOnUse" color-interpolation-filters="sRGB">
<feFlood flood-opacity="0" result="BackgroundImageFix"/>
<feColorMatrix in="SourceAlpha" type="matrix" values="0 0 0 0 0 0 0 0 0 0 0 0 0 0 0 0 0 0 127 0" result="hardAlpha"/>
<feMorphology radius="1" operator="dilate" in="SourceAlpha" result="effect1_dropShadow_697_2390"/>
<feOffset dx="5" dy="5"/>
<feGaussianBlur stdDeviation="10"/>
<feComposite in2="hardAlpha" operator="out"/>
<feColorMatrix type="matrix" values="0 0 0 0 0 0 0 0 0 0 0 0 0 0 0 0 0 0 0.5 0"/>
<feBlend mode="normal" in2="BackgroundImageFix" result="effect1_dropShadow_697_2390"/>
<feBlend mode="normal" in="SourceGraphic" in2="effect1_dropShadow_697_2390" result="shape"/>
</filter>
<linearGradient id="paint0_linear_697_2390" x1="282.977" y1="105.278" x2="16.3979" y2="105.278" gradientUnits="userSpaceOnUse">
<stop stop-color="#FFD500"/>
<stop offset="1" stop-color="#FE7664"/>
</linearGradient>
</defs>
</svg>
