<svg width="309" height="221" viewBox="0 0 309 221" fill="none" xmlns="http://www.w3.org/2000/svg">
<g filter="url(#filter0_d_697_2374)">
<path d="M247.977 16.0771C267.307 16.0771 282.977 31.7472 282.977 51.0771V159.48C282.977 178.81 267.307 194.48 247.977 194.48H51.3978C32.0679 194.48 16.3979 178.81 16.3979 159.48V51.0771C16.3979 31.7472 32.0679 16.0771 51.3979 16.0771L247.977 16.0771Z" fill="#FF73B9" shape-rendering="crispEdges"/>
<path d="M282.477 51.0771V159.479C282.477 178.533 267.03 193.979 247.977 193.979H51.3975C32.3438 193.979 16.8975 178.533 16.8975 159.479V51.0771C16.8975 32.0235 32.3438 16.5774 51.3975 16.5771L247.977 16.5771C267.03 16.5771 282.477 32.0233 282.477 51.0771Z" stroke="#292929" shape-rendering="crispEdges"/>
<g filter="url(#filter1_d_697_2374)">
<path d="M247.977 16.0771C267.307 16.0771 282.977 31.7472 282.977 51.0771V159.48C282.977 178.81 267.307 194.48 247.977 194.48L51.3978 194.48C32.0679 194.48 16.3979 178.81 16.3979 159.48V51.0771C16.3979 31.7472 32.0679 16.0771 51.3979 16.0771L247.977 16.0771Z" fill="url(#paint0_linear_697_2374)"/>
<path d="M282.477 51.0771V159.479C282.477 178.533 267.03 193.979 247.977 193.979L51.3975 193.979C32.3438 193.979 16.8975 178.533 16.8975 159.479V51.0771C16.8975 32.0235 32.3438 16.5774 51.3975 16.5771L247.977 16.5771C267.03 16.5771 282.477 32.0233 282.477 51.0771Z" stroke="#292929"/>
</g>
<path d="M112.45 98.4416C135.63 98.4407 158.601 98.4376 181.571 98.4395C184.369 98.4397 184.374 98.452 184.376 101.314C184.38 109.048 184.352 116.782 184.405 124.516C184.416 126.076 183.93 127.162 182.786 128.287C175.423 135.529 168.163 142.875 160.863 150.18C156.579 154.467 152.252 158.711 148.008 163.036C146.586 164.486 145.53 164.19 144.23 162.879C135.735 154.312 127.197 145.788 118.67 137.253C115.71 134.29 112.796 131.279 109.75 128.407C108.416 127.149 107.982 125.795 108.001 124.003C108.078 116.487 108.027 108.969 108.026 101.452C108.026 98.4445 108.03 98.4443 110.94 98.4387C111.373 98.4378 111.807 98.4401 112.45 98.4416ZM114.016 122.634C114.28 123.343 114.544 124.052 114.987 124.985C121.9 131.923 128.8 138.875 135.755 145.77C136.284 146.294 137.252 146.745 137.948 146.662C140.436 146.365 142.895 145.823 145.753 145.392C147.351 145.502 148.949 145.612 150.883 145.82C151.375 145.936 151.906 145.969 152.351 146.182C154.623 147.269 156.107 146.312 157.73 144.644C164.021 138.177 170.435 131.829 176.867 125.503C178.065 124.324 178.671 123.128 178.338 121.086C178.338 115.57 178.338 110.054 178.338 104.593C171.634 104.593 165.23 104.593 158.423 104.505C150.018 104.521 141.612 104.537 132.805 104.497C126.629 104.497 120.452 104.497 114.109 104.497C114.109 110.619 114.109 116.504 114.016 122.634Z" fill="white"/>
<path d="M178.8 68.9948C183.511 75.6636 184.516 83.08 184.002 90.8163C183.962 91.4241 182.975 92.0182 182.344 92.5115C182.117 92.6891 181.644 92.5567 181.283 92.5566C157.886 92.5527 134.489 92.5515 111.092 92.5386C108.156 92.537 108.156 92.5082 108.152 89.5339C108.131 72.9134 117.573 59.0325 132.652 53.5177C148.32 47.787 165.277 52.3917 175.916 65.279C176.881 66.4476 177.781 67.6692 178.8 68.9948ZM154.428 78.0008C153.155 79.6881 152.163 81.7646 150.528 82.9514C148.946 84.0988 148.753 85.0892 149.187 86.6841C158.924 86.6841 168.561 86.6841 178.043 86.6841C178.427 78.4613 174.853 72.0775 169.225 66.5797C163.584 61.0698 156.99 57.7511 149.264 57.0737C148.405 59.9131 149.114 61.5724 151.471 62.8976C153.472 64.0229 154.548 66.1889 154.614 68.5515C154.698 71.574 154.551 74.6029 154.428 78.0008ZM142.89 83.6688C139.124 81.7919 137.406 78.7465 137.603 74.5485C137.684 72.8192 137.578 71.0818 137.626 69.35C137.703 66.5813 138.716 64.0059 141.106 62.7373C143.771 61.3229 143.466 59.4202 143.166 57.2111C128.573 57.2761 112.222 73.9721 114.31 86.6279C123.915 86.6279 133.532 86.6279 143.354 86.6279C143.274 85.6028 143.208 84.7614 142.89 83.6688ZM143.926 78.9274C147.468 80.4926 149.967 78.9537 150.05 75.1253C150.091 73.2531 150.128 71.3757 150.037 69.507C149.927 67.2377 148.262 65.6014 146.217 65.5879C144.052 65.5735 142.386 67.2523 142.313 69.6224C142.256 71.4938 142.134 73.3882 142.356 75.2344C142.5 76.4328 143.21 77.5631 143.926 78.9274Z" fill="white"/>
<path d="M163.385 40.149C160.168 39.5673 157.139 38.8157 154.07 38.5609C150.153 38.2356 148.004 40.2771 147.584 44.2068C147.515 44.8522 147.558 45.5112 147.467 46.1521C147.222 47.871 146.277 49.0091 144.481 48.9616C142.677 48.9139 141.651 47.6744 141.656 45.9881C141.679 38.9942 143.873 32.7821 153.36 32.5787C159.616 32.4445 165.386 34.6851 171.293 36.3089C177.472 38.0076 183.715 39.4713 189.936 41.0194C190.419 41.1398 190.938 41.1411 191.442 41.156C197.715 41.3425 200.894 39.0548 202.943 33.12C203.245 32.247 204.416 30.8908 204.855 31.007C205.873 31.2768 207.082 32.1313 207.507 33.0694C208.492 35.2409 207.869 37.4664 206.775 39.5089C203.863 44.9451 199.025 47.4024 193.167 47.0003C187.816 46.6331 182.48 45.5133 177.235 44.3046C172.606 43.2379 168.111 41.5908 163.385 40.149Z" fill="white"/>
<path d="M132.62 105.308C132.634 105.366 132.611 105.239 132.603 105.209C132.596 105.179 132.594 105.15 132.581 105.144C132.568 105.138 132.606 105.25 132.62 105.308Z" fill="white"/>
</g>
<defs>
<filter id="filter0_d_697_2374" x="0.398438" y="0.0771484" width="308.578" height="220.402" filterUnits="userSpaceOnUse" color-interpolation-filters="sRGB">
<feFlood flood-opacity="0" result="BackgroundImageFix"/>
<feColorMatrix in="SourceAlpha" type="matrix" values="0 0 0 0 0 0 0 0 0 0 0 0 0 0 0 0 0 0 127 0" result="hardAlpha"/>
<feMorphology radius="1" operator="dilate" in="SourceAlpha" result="effect1_dropShadow_697_2374"/>
<feOffset dx="5" dy="5"/>
<feGaussianBlur stdDeviation="10"/>
<feComposite in2="hardAlpha" operator="out"/>
<feColorMatrix type="matrix" values="0 0 0 0 0 0 0 0 0 0 0 0 0 0 0 0 0 0 0.5 0"/>
<feBlend mode="normal" in2="BackgroundImageFix" result="effect1_dropShadow_697_2374"/>
<feBlend mode="normal" in="SourceGraphic" in2="effect1_dropShadow_697_2374" result="shape"/>
</filter>
<filter id="filter1_d_697_2374" x="0.398438" y="0.0771484" width="308.578" height="220.402" filterUnits="userSpaceOnUse" color-interpolation-filters="sRGB">
<feFlood flood-opacity="0" result="BackgroundImageFix"/>
<feColorMatrix in="SourceAlpha" type="matrix" values="0 0 0 0 0 0 0 0 0 0 0 0 0 0 0 0 0 0 127 0" result="hardAlpha"/>
<feMorphology radius="1" operator="dilate" in="SourceAlpha" result="effect1_dropShadow_697_2374"/>
<feOffset dx="5" dy="5"/>
<feGaussianBlur stdDeviation="10"/>
<feComposite in2="hardAlpha" operator="out"/>
<feColorMatrix type="matrix" values="0 0 0 0 0 0 0 0 0 0 0 0 0 0 0 0 0 0 0.5 0"/>
<feBlend mode="normal" in2="BackgroundImageFix" result="effect1_dropShadow_697_2374"/>
<feBlend mode="normal" in="SourceGraphic" in2="effect1_dropShadow_697_2374" result="shape"/>
</filter>
<linearGradient id="paint0_linear_697_2374" x1="282.977" y1="105.278" x2="16.3979" y2="105.278" gradientUnits="userSpaceOnUse">
<stop stop-color="#FFD500"/>
<stop offset="1" stop-color="#FE7664"/>
</linearGradient>
</defs>
</svg>
